HIERARCHY
ROOT Hips
{
  OFFSET -32.5998 29.0326 120.673
  CHANNELS 6 Xposition Yposition Zposition Zrotation Xrotation Yrotation
  JOINT LeftUpLeg
  {
    OFFSET 8.64259 1.95398 -2.38835
    CHANNELS 3 Zrotation Xrotation Yrotation
    JOINT LeftLeg
    {
      OFFSET 43.7702 0 0
      CHANNELS 3 Zrotation Xrotation Yrotation
      JOINT LeftFoot
      {
        OFFSET 40.6238 0 0
        CHANNELS 3 Zrotation Xrotation Yrotation
        JOINT LeftToeBase
        {
          OFFSET 12.7242 0 0
          CHANNELS 3 Zrotation Xrotation Yrotation
          End Site
          {
            OFFSET 0 0 0
          }
        }
      }
    }
  }
  JOINT RightUpLeg
  {
    OFFSET -8.2249 1.95398 -2.59336
    CHANNELS 3 Zrotation Xrotation Yrotation
    JOINT RightLeg
    {
      OFFSET 43.5653 0 0
      CHANNELS 3 Zrotation Xrotation Yrotation
      JOINT RightFoot
      {
        OFFSET 40.6238 0 0
        CHANNELS 3 Zrotation Xrotation Yrotation
        JOINT RightToeBase
        {
          OFFSET 12.7242 0 0
          CHANNELS 3 Zrotation Xrotation Yrotation
          End Site
          {
            OFFSET 0 0 0
          }
        }
      }
    }
  }
  JOINT Spine
  {
    OFFSET 0.165834 0.87714 6.61349
    CHANNELS 3 Zrotation Xrotation Yrotation
    JOINT Spine1
    {
      OFFSET 7.38963 1.71661e-005 0
      CHANNELS 3 Zrotation Xrotation Yrotation
      JOINT Spine2
      {
        OFFSET 11.9445 1.14441e-005 0
        CHANNELS 3 Zrotation Xrotation Yrotation
        JOINT Spine3
        {
          OFFSET 14.7254 4.19617e-005 0
          CHANNELS 3 Zrotation Xrotation Yrotation
          JOINT Spine4
          {
            OFFSET 10.9679 0 0
            CHANNELS 3 Zrotation Xrotation Yrotation
            JOINT RightShoulder
            {
              OFFSET 2.46616 -1.6653 3.69651
              CHANNELS 3 Zrotation Xrotation Yrotation
              JOINT RightArm
              {
                OFFSET 13.0012 0 0
                CHANNELS 3 Zrotation Xrotation Yrotation
                JOINT RightForeArm
                {
                  OFFSET 28.7848 1.62311e-005 0
                  CHANNELS 3 Zrotation Xrotation Yrotation
                  JOINT RightHand
                  {
                    OFFSET 26.5688 1.62095e-005 0
                    CHANNELS 3 Zrotation Xrotation Yrotation
                    End Site
                    {
                      OFFSET 0 0 0
                    }
                  }
                }
              }
            }
            JOINT LeftShoulder
            {
              OFFSET 2.38034 -1.29275 -3.7523
              CHANNELS 3 Zrotation Xrotation Yrotation
              JOINT LeftArm
              {
                OFFSET 16.3182 6.07031e-005 0
                CHANNELS 3 Zrotation Xrotation Yrotation
                JOINT LeftForeArm
                {
                  OFFSET 27.0901 0 0
                  CHANNELS 3 Zrotation Xrotation Yrotation
                  JOINT LeftHand
                  {
                    OFFSET 24.5451 1.51738e-005 0
                    CHANNELS 3 Zrotation Xrotation Yrotation
                    End Site
                    {
                      OFFSET 0 0 0
                    }
                  }
                }
              }
            }
            JOINT Neck
            {
              OFFSET 5.0226 -0.0266342 0
              CHANNELS 3 Zrotation Xrotation Yrotation
              JOINT Head
              {
                OFFSET 6.69364 2.86102e-005 0
                CHANNELS 3 Zrotation Xrotation Yrotation
                End Site
                {
                  OFFSET 0 0 0
                }
              }
            }
          }
        }
      }
    }
  }
}
MOTION
Frames:	10
Frame Time:	0.0416667
36.5178 8.04207 39.9759 5.52049 -11.6949 0.961539 -171.22 -7.99364 97.8125 -20.9087 16.1364 2.43352 86.4028 17.4628 -2.14475 17.9003 -7.32922 4.97261 167.458 -11.1533 85.1897 -19.8299 -4.25303 1.94128 80.6891 -13.4183 -0.240164 41.9144 -5.75612 -0.311099 0.168552 5.97208 -90.2541 14.93 0.207343 -0.541589 3.25891 0.183306 -0.550195 -19.2757 0.36052 -0.454253 0.736962 0.360522 -0.454243 95.3449 -11.0347 -102.08 18.4499 7.23803 23.9638 -52.2164 50.0201 -127.153 -33.4726 -11.1958 31.6059 -85.7355 -24.8466 80.2167 -0.61233 -3.56208 9.64962 42.6711 -42.0787 -125.184 24.6149 7.71001 27.3486 53.2047 -4.43426 -3.53558 -15.2018 -1.9512 0.513136 
36.4942 8.01285 39.9817 5.60104 -11.7684 0.886295 -170.877 -7.89505 97.987 -21.2057 16.5355 2.18922 86.0264 17.2705 -1.88353 17.751 -7.24661 4.68657 167.441 -11.1905 85.0807 -20.0163 -3.59152 1.90195 81.1559 -13.2502 1.02321 41.63 -5.57485 -0.839869 0.161212 5.9829 -90.2561 14.9083 0.191873 -0.543209 3.23722 0.167776 -0.551153 -19.2973 0.346258 -0.460431 0.715299 0.346258 -0.460445 95.3978 -10.8541 -102.011 18.4422 7.19515 23.9171 -53.9513 50.9313 -125.777 -31.473 -10.4585 31.545 -85.7852 -25.0757 80.1739 -0.290973 -3.55728 9.5317 42.1074 -41.7303 -125.421 24.0311 7.52574 27.3093 50.5931 -4.60451 -4.49322 -11.6465 -1.79873 2.40834 
36.4737 8.00692 39.9538 5.51245 -11.7779 0.804402 -170.736 -8.05804 98.0655 -20.7852 16.6661 2.03691 86.6689 17.576 -2.41403 16.802 -8.06015 5.27375 167.417 -11.0027 85.0037 -20.3505 -3.80598 1.89242 81.13 -13.2399 0.670573 41.7737 -5.6569 -0.665442 0.181698 6.00142 -90.2418 14.8714 0.239578 -0.521361 3.20035 0.216406 -0.531398 -19.3344 0.38519 -0.425264 0.678287 0.385191 -0.425251 95.512 -10.9024 -101.662 18.2833 7.35856 23.6439 -55.6083 51.7185 -124.413 -29.2905 -9.79058 31.8592 -85.8562 -24.5952 79.895 -0.283361 -3.97235 9.72171 41.9687 -41.5819 -125.62 24.3697 7.64609 27.3854 49.758 -4.91344 -5.35686 -10.247 -1.69181 3.77318 
36.4946 8.03708 39.9607 5.64751 -11.7627 0.780271 -170.869 -7.97428 97.9641 -20.8664 16.5946 2.0974 86.5566 17.5057 -2.42137 16.8989 -8.09951 5.42946 167.36 -10.9598 84.9328 -20.4047 -3.54746 1.92855 81.2542 -13.1734 1.07739 41.7419 -5.66894 -0.423444 0.152481 5.99195 -90.2592 14.8902 0.173125 -0.546589 3.21913 0.148894 -0.55368 -19.3154 0.329383 -0.469289 0.697256 0.329385 -0.469287 95.4581 -10.7056 -101.906 18.81 6.51339 23.6146 -57.5533 52.7729 -122.587 -27.96 -9.27223 31.7036 -85.8365 -25.2716 80.121 0.257104 -3.75321 9.70897 41.7622 -41.5001 -125.719 24.377 7.70068 27.5919 49.7289 -4.73994 -5.16696 -10.4034 -1.6404 3.68431 
36.4775 8.01814 39.9641 5.66577 -11.7662 0.768617 -170.771 -8.01884 98.0269 -20.8122 16.8172 2.0447 86.5855 17.538 -2.35657 16.9899 -8.10214 5.51652 167.404 -10.9715 84.9611 -20.4121 -3.44768 1.88318 81.2696 -13.1577 1.18759 41.9003 -5.67838 -0.986102 0.141253 5.98588 -90.2629 14.9022 0.149046 -0.550444 3.23109 0.124673 -0.55649 -19.3034 0.307582 -0.480198 0.709239 0.30759 -0.480222 95.4369 -10.7164 -101.961 18.8554 6.17551 23.6342 -57.7344 52.8035 -122.288 -26.7749 -8.70788 31.0976 -85.6917 -25.4526 80.4708 0.0701707 -3.18609 9.5878 41.7514 -41.3926 -125.451 23.7254 7.3139 26.825 49.9149 -4.60292 -4.87218 -10.7514 -1.65631 3.28377 
36.4685 8.00995 39.9624 5.7099 -11.7104 0.793314 -170.84 -7.88958 98.0256 -20.9248 16.8409 2.09064 86.5187 17.4711 -2.40393 17.0476 -7.88845 5.193 167.428 -10.964 85.0303 -20.363 -3.54595 1.89709 81.1535 -13.2011 0.806038 41.7701 -5.6843 -0.395153 0.120312 5.96674 -90.3006 14.9402 0.0887759 -0.617623 3.26906 0.0615102 -0.620935 -19.2651 0.270291 -0.562403 0.74756 0.270287 -0.562399 95.4027 -10.3514 -102.231 18.9511 6.08379 23.7575 -55.6727 51.9513 -124.077 -30.0423 -9.78829 30.9276 -85.8877 -25.8002 80.1581 0.644691 -3.56777 10.0628 41.288 -41.2828 -125.957 24.1759 7.59823 27.4246 50.0395 -4.23998 -4.3813 -10.9861 -1.58944 3.04267 
36.4469 8.01365 39.951 5.65233 -11.7646 0.739204 -170.81 -8.01656 97.9966 -20.7962 16.8768 2.05656 86.4346 17.5308 -2.16643 17.0107 -7.72418 4.8703 167.422 -10.9457 84.9832 -20.4631 -3.48449 1.87121 81.2237 -13.2054 0.908797 41.928 -5.7413 -0.507213 0.119029 5.95153 -90.3275 14.9707 0.0727909 -0.669157 3.29962 0.0432727 -0.671706 -19.2343 0.270532 -0.616337 0.778317 0.270525 -0.616349 95.3574 -10.0558 -102.505 18.2258 6.7959 24.0514 -57.4302 52.6762 -122.948 -27.9035 -9.42921 32.1829 -85.957 -26.7363 80.262 1.58993 -3.53252 10.0412 40.8907 -40.9137 -126.063 23.7762 7.41069 27.1543 49.9709 -3.79029 -3.70319 -11.0552 -1.52957 2.46658 
36.4609 8.00925 39.9504 5.83852 -11.7631 0.708332 -170.864 -7.99463 97.9607 -20.8052 16.9443 2.07518 86.4609 17.5281 -2.23678 16.9446 -7.81434 4.97025 167.32 -10.9932 84.8869 -20.4171 -3.31811 1.93695 81.3352 -13.1628 1.23662 41.7224 -5.62545 -0.748454 0.0895243 5.96575 -90.3333 14.9418 0.0116317 -0.671858 3.27071 -0.0179386 -0.671713 -19.2632 0.213015 -0.63731 0.749509 0.213013 -0.637292 95.4636 -9.7689 -102.33 18.7994 6.33734 23.7967 -58.2035 53.0982 -122.189 -27.3647 -9.10346 31.7654 -85.634 -26.7142 80.9171 1.25873 -3.4293 9.53529 41.2294 -41.15 -125.855 24.0435 7.52181 27.2801 50.5365 -3.72937 -3.67542 -11.4545 -1.46889 2.38045 
36.4437 7.99669 39.9442 5.9023 -11.744 0.702024 -170.807 -7.9862 98.0135 -20.8079 17.1615 2.0316 86.5569 17.4852 -2.47938 17.0148 -8.43881 6.12814 167.332 -10.9728 84.9154 -20.462 -3.28722 1.94719 81.2456 -13.1649 0.964867 42.0769 -5.83473 -0.234709 0.0785985 5.93315 -90.385 15.0069 -0.0359186 -0.7689 3.33566 -0.0697311 -0.76659 -19.1977 0.196821 -0.744164 0.814908 0.196818 -0.744167 95.4284 -9.17314 -102.728 19.1816 5.92257 24.1966 -56.6349 52.4219 -123.237 -28.1781 -9.18605 31.0848 -85.7496 -27.9404 80.9883 2.12634 -3.16349 9.20204 41.1167 -40.9022 -125.631 23.5029 7.34415 27.2113 50.6043 -3.13011 -2.24068 -11.9879 -1.67001 1.1718 
36.4448 8.00205 39.9282 5.75176 -11.7939 0.610041 -170.915 -8.19474 97.8522 -20.5686 16.832 2.068 86.5107 17.603 -2.2849 17.1406 -7.93615 5.36196 167.274 -10.9082 84.807 -20.6013 -3.63783 1.92224 81.3036 -13.2822 0.658467 41.8689 -5.71754 -0.487287 0.100606 5.91622 -90.3939 15.0407 0.00308967 -0.792685 3.3695 -0.031801 -0.792054 -19.1638 0.241177 -0.75511 0.848784 0.241172 -0.755132 95.3995 -9.07012 -102.866 19.33 5.54666 24.5437 -52.8255 50.293 -126.051 -31.9933 -10.2026 29.9922 -85.8331 -28.7776 81.0281 2.82179 -2.82141 9.51625 41.1181 -40.9316 -125.635 23.6969 7.3661 27.069 50.8668 -2.90482 -1.76218 -12.3573 -1.71868 0.888572 
